<svg version="1.1" id="Layer_1" xmlns="http://www.w3.org/2000/svg" x="0" y="0" viewBox="0 0 320 100" xml:space="preserve"><style>.st0{fill:none;stroke:#37385c;stroke-width:.5}</style><g id="Components-_x2F_-Road-_x2F_-Left-Left-2-_x2F_-Mobile"><g id="B" transform="translate(20)"><path id="Stroke-1" class="st0" d="M139.8.2C129.3 3.6 118 7.8 109 16c-1.8 1.6-3.5 3.4-4.6 5.8-6.3 13.3 10 23 16.2 27.4 3.4 2.4 8.9 7.8 7.8 14-1 5.4-5.8 6.4-9.2 6.8-14.7 1.6-29.6 1-44.3 1.7-15 1.6-30.1 3.3-44.9 7C21.6 80.8 2.3 83.8.2 98.8"/><path id="Stroke-3" class="st0" d="M142.3 3s-32.8 10.1-28.4 23.1c2.7 7.9 10.9 11.4 16.4 14.4 6.2 3.5 16.2 7.5 18.8 16.8 2.1 7.5-1.8 15.5-6.3 19.3-10.4 8.7-24.2 8-35.9 7.8-27.5.2-55.5 3.2-81.6 15.6"/></g></g></svg>