<svg version="1.1" id="Layer_1" xmlns="http://www.w3.org/2000/svg" x="0" y="0" viewBox="0 0 1366 132" xml:space="preserve"><style>.st0{fill:none;stroke:#39395d;stroke-width:.5}</style><g id="Components-_x2F_-Road-_x2F_-Left-Left-3-_x2F_-Desktop"><g id="A" transform="matrix(-1 0 0 1 673 0)"><path id="Stroke-1" class="st0" d="M18.2 2.5c.9 27 94.6 31.6 144.7 32.4 64 1 130 3.2 187.9 13.2 39.5 6.8 66.6 19.5 30.2 32.7-23.6 8.5-63.5 10.7-93.5 12.7-42.3 2.9-85.3 4.4-128.2 5.5-52.2 1.2-140.5 2-158.9 32.6"/><path id="Stroke-3" class="st0" d="M34.2 0C33 5.6 43.9 10.7 56.1 14.2c49 13.9 123.8 12.1 183.4 14.2 42.8 1.5 85.1 4.6 125.8 9.3C414.1 43.2 469.5 53.2 478 72c3.6 8-1.8 15.6-15.7 22.2-40.1 19.1-107.9 26.5-167.1 30.4-37.1 2.5-41.1 3-78.6 3.9"/></g></g></svg>