<svg version="1.1" id="Layer_1" xmlns="http://www.w3.org/2000/svg" x="0" y="0" viewBox="0 0 1366 132" xml:space="preserve"><style>.st0{fill:none;stroke:#37385c;stroke-width:.5}</style><g id="Components-_x2F_-Road-_x2F_-Left-Right-_x2F_-Desktop"><g id="C" transform="translate(293)"><path id="Stroke-1" class="st0" d="M55.2.2c58.2 4.5 121.2 10 171.4 20.8 9.8 2.1 19.3 4.5 25.6 7.7 35 17.5-55.7 30.3-90 36.1-18.9 3.2-49.5 10.3-43.2 18.5 5.5 7.1 32.2 8.5 51.2 9 81.5 2.1 164.5 1.4 246.3 2.2 50 1.2 99.9 2.6 149.8 4.6 46.6 1.8 93.1 3.4 139.5 6.4 26.9 1.8 61.6 6 73 25.5"/><path id="Stroke-3" class="st0" d="M41.5 3.9s182.2 13.2 157.9 30.4c-14.8 10.4-60.8 15-91.1 19-34.5 4.5-89.8 9.8-104.7 22.1-11.9 9.9 9.8 20.4 35.3 25.4 57.7 11.5 134.5 10.6 199.7 10.2 152.7.3 308.3 4.2 453.3 20.5"/></g></g></svg>