<svg version="1.1" id="Layer_1" xmlns="http://www.w3.org/2000/svg" x="0" y="0" viewBox="0 0 320 100" xml:space="preserve"><style>.st0{fill:none;stroke:#37385c;stroke-width:.5}</style><g id="Components-_x2F_-Road-_x2F_-Left-Right-_x2F_-Mobile"><g id="C" transform="translate(20.155)"><path id="Stroke-1" class="st0" d="M19.8.2C40.7 3.6 63.3 7.8 81.4 16c3.5 1.6 6.9 3.4 9.2 5.8 12.6 13.2-20 23-32.3 27.3-6.8 2.4-17.8 7.8-15.5 14 2 5.4 11.6 6.4 18.4 6.8 29.3 1.6 59.1 1 88.4 1.7 17.9.9 35.9 2 53.8 3.5 16.7 1.4 33.4 2.6 50.1 4.9 9.7 1.3 22.1 4.6 26.2 19.3"/><path id="Stroke-3" class="st0" d="M14.9 3s65.4 10 56.7 23c-5.3 7.9-21.8 11.3-32.7 14.4-12.4 3.4-32.3 7.4-37.6 16.8C-3 64.6 4.8 72.6 14 76.4c20.7 8.7 48.3 8 71.7 7.7 54.8.2 110.7 3.2 162.8 15.6"/></g></g></svg>