<svg version="1.1" id="Layer_1" xmlns="http://www.w3.org/2000/svg" x="0" y="0" viewBox="0 0 1366 132" xml:space="preserve"><style>.st0{fill:none;stroke:#37385c;stroke-width:.5}</style><g id="Components-_x2F_-Road-_x2F_-Left-Left-2-_x2F_-Desktop"><g id="B" transform="translate(193)"><path id="Stroke-1" class="st0" d="M261 .2c-19.6 4.5-40.7 10.1-57.6 20.9-3.3 2.1-6.5 4.5-8.6 7.7C183 46.3 213.5 59.1 225 64.9c6.3 3.2 16.6 10.3 14.5 18.5-1.8 7.1-10.8 8.5-17.2 9-27.4 2.2-55.3 1.4-82.8 2.2-28 2.1-56.1 4.3-83.8 9.3C40 106.7 4 110.6.2 130.5"/><path id="Stroke-3" class="st0" d="M265.6 4s-61.2 13.3-53.1 30.4c5 10.5 20.4 15 30.6 19 11.6 4.6 30.2 9.8 35.2 22.2 4 9.9-3.3 20.4-11.9 25.5-19.4 11.5-45.2 10.6-67.1 10.3-51.3.3-103.6 4.2-152.4 20.6"/></g></g></svg>