<svg version="1.1" id="Layer_1" xmlns="http://www.w3.org/2000/svg" x="0" y="0" viewBox="0 0 1366 132" xml:space="preserve"><style>.st0{fill:none;stroke:#37385c;stroke-width:.5}</style><g id="Components-_x2F_-Road-_x2F_-Middle-Left-_x2F_-Desktop"><g id="C" transform="matrix(-1 0 0 1 773 0)"><path id="Stroke-1" class="st0" d="M41.1.2c43.4 4.5 90.2 10 127.6 20.8 7.3 2.1 14.3 4.5 19.1 7.7 26.1 17.5-41.5 30.3-67 36.1-14 3.1-36.8 10.2-32.1 18.4 4.1 7.1 24 8.5 38.1 9 60.7 2.1 122.5 1.4 183.4 2.2 37.2 1.2 74.4 2.6 111.6 4.6 34.7 1.8 69.3 3.4 103.9 6.4 20 1.8 45.9 6 54.3 25.5"/><path id="Stroke-3" class="st0" d="M30.9 3.9s135.6 13.2 117.5 30.4c-11 10.4-45.3 15-67.8 19-25.7 4.6-66.9 9.8-77.9 22.2-8.8 9.8 7.3 20.3 26.3 25.4 43 11.5 100.2 10.6 148.7 10.2 113.7.3 229.6 4.2 337.5 20.5"/></g></g></svg>