<svg version="1.1" id="Layer_1" xmlns="http://www.w3.org/2000/svg" x="0" y="0" viewBox="0 0 1366 132" xml:space="preserve"><style>.st0{fill:none;stroke:#39395d;stroke-width:.5}</style><g id="Components-_x2F_-Road-_x2F_-Right-Right-_x2F_-Desktop"><g id="D" transform="matrix(-1 0 0 1 1073 0)"><path id="Stroke-1" class="st0" d="M14.4 2.5c.7 27 74.9 31.6 114.6 32.4 50.7 1 102.9 3.2 148.8 13.2 31.3 6.8 52.8 19.5 23.9 32.7-18.7 8.5-50.3 10.7-74 12.7-33.5 2.9-67.5 4.4-101.5 5.5C84.8 100.2 15 101 .4 131.6"/><path id="Stroke-3" class="st0" d="M27.1 0c-1 5.6 7.7 10.7 17.3 14.2 38.8 13.9 98 12.1 145.2 14.2 33.9 1.5 67.4 4.6 99.6 9.3 38.7 5.6 82.5 15.6 89.2 34.3 2.8 8-1.4 15.6-12.4 22.2-31.8 19.1-85.5 26.5-132.3 30.4-29.4 2.5-32.5 3-62.2 3.9"/></g></g></svg>