<svg version="1.1" id="Layer_1" xmlns="http://www.w3.org/2000/svg" x="0" y="0" viewBox="0 0 320 100" xml:space="preserve"><style>.st0{fill:none;stroke:#39395d;stroke-width:.5}</style><g id="Components-_x2F_-Road-_x2F_-Right-Right-_x2F_-Mobile"><g id="A" transform="matrix(-1 0 0 1 300 0)"><path id="Stroke-1" class="st0" d="M6.8 1.9c.3 20.4 35.5 23.9 54.3 24.5 24 .7 48.8 2.5 70.5 10 14.8 5.2 25 14.8 11.3 24.8-8.8 6.5-23.8 8.1-35.1 9.6-15.9 2.2-32 3.4-48.1 4.1-19.5 1-52.6 1.6-59.5 24.8"/><path id="Stroke-3" class="st0" d="M12.8 0c-.5 4.2 3.6 8.1 8.2 10.7 18.4 10.6 46.4 9.2 68.8 10.7 16 1.1 31.9 3.5 47.2 7 18.3 4.2 39.1 11.8 42.3 26 1.3 6-.7 11.8-5.9 16.8-15 14.5-40.5 20.1-62.7 23-13.9 1.9-15.4 2.3-29.5 3"/></g></g></svg>