<svg version="1.1" id="Layer_1" xmlns="http://www.w3.org/2000/svg" x="0" y="0" viewBox="0 0 1366 132" xml:space="preserve"><style>.st0{fill:none;stroke:#38385c;stroke-width:.5}</style><g id="Components-_x2F_-Road-_x2F_-Right-Middle-_x2F_-Desktop"><g id="E" transform="translate(693)"><path id="Stroke-1" class="st0" d="M76.6 131.7s15-23 147.4-19.8 147.4-5.8 154.4-14c7.1-8.2 17.6-23-23.8-44.4C313.1 32.1 479.9 4.1 479.9 4.1"/><path id="Stroke-3" class="st0" d="M424.9.3c-31.4 5.9-71.4 18.7-89.8 27.8-18.4 9.1-15.7 26 2 37.3 17.6 11.3 20 14.6 16.5 17.2-3.5 2.6-18.3 8.8-130.4 2.2-56-3.3-92.7-1.9-115.3.4 0 0-78.7-.2-107.6 45.4"/></g></g></svg>