<svg version="1.1" id="Layer_1" xmlns="http://www.w3.org/2000/svg" x="0" y="0" viewBox="0 0 320 100" xml:space="preserve"><style>.st0{fill:none;stroke:#38385c;stroke-width:.5}</style><g id="Components-_x2F_-Road-_x2F_-Right-Middle-_x2F_-Mobile"><g id="E" transform="translate(115)"><path id="Stroke-1" class="st0" d="M28.7 99.8s5.6-17.5 55.2-15 55.2-4.4 57.9-10.6c2.6-6.2 6.6-17.5-8.9-33.7-15.5-16.2 47-37.5 47-37.5"/><path id="Stroke-3" class="st0" d="M159.2.2c-11.8 4.4-26.7 14.1-33.6 21.1-6.9 6.9-5.9 19.7.7 28.3 6.6 8.6 7.5 11.1 6.2 13-1.3 1.9-6.9 6.6-48.8 1.7-21-2.5-34.7-1.4-43.2.3 0 0-29.5-.1-40.3 34.4"/></g></g></svg>